<svg viewBox="0 0 100 105" fill="none" xmlns="http://www.w3.org/2000/svg" id="B1ZwH6517"><style>@-webkit-keyframes rkIZDSTcy7_ryEWFa9kQ_Animation{0%{-webkit-transform:  rotate(0deg);transform:  rotate(0deg);}100%{-webkit-transform:  rotate(360deg);transform:  rotate(360deg);}}@keyframes rkIZDSTcy7_ryEWFa9kQ_Animation{0%{-webkit-transform:  rotate(0deg);transform:  rotate(0deg);}100%{-webkit-transform:  rotate(360deg);transform:  rotate(360deg);}}@-webkit-keyframes r1VZPraq1X_HkIsupc1m_Animation{0%{-webkit-transform:  rotate(0deg);transform:  rotate(0deg);}100%{-webkit-transform:  rotate(360deg);transform:  rotate(360deg);}}@keyframes r1VZPraq1X_HkIsupc1m_Animation{0%{-webkit-transform:  rotate(0deg);transform:  rotate(0deg);}100%{-webkit-transform:  rotate(360deg);transform:  rotate(360deg);}}@-webkit-keyframes r1SbDrpcJ7_ByiF_691m_Animation{0%{-webkit-transform:  rotate(0deg);transform:  rotate(0deg);}100%{-webkit-transform:  rotate(360deg);transform:  rotate(360deg);}}@keyframes r1SbDrpcJ7_ByiF_691m_Animation{0%{-webkit-transform:  rotate(0deg);transform:  rotate(0deg);}100%{-webkit-transform:  rotate(360deg);transform:  rotate(360deg);}}@-webkit-keyframes SJPbwHpcyQ_rJcmd69kX_Animation{0%{-webkit-transform:  rotate(0deg);transform:  rotate(0deg);}100%{-webkit-transform:  rotate(360deg);transform:  rotate(360deg);}}@keyframes SJPbwHpcyQ_rJcmd69kX_Animation{0%{-webkit-transform:  rotate(0deg);transform:  rotate(0deg);}100%{-webkit-transform:  rotate(360deg);transform:  rotate(360deg);}}@-webkit-keyframes SydZDS69yX_HkU2D6qk7_Animation{0%{-webkit-transform:  rotate(0deg);transform:  rotate(0deg);}100%{-webkit-transform:  rotate(360deg);transform:  rotate(360deg);}}@keyframes SydZDS69yX_HkU2D6qk7_Animation{0%{-webkit-transform:  rotate(0deg);transform:  rotate(0deg);}100%{-webkit-transform:  rotate(360deg);transform:  rotate(360deg);}}@-webkit-keyframes HJtZvHpcJm_B1ktHT9y7_Animation{0%{-webkit-transform:  rotate(0deg);transform:  rotate(0deg);}100%{-webkit-transform:  rotate(360deg);transform:  rotate(360deg);}}@keyframes HJtZvHpcJm_B1ktHT9y7_Animation{0%{-webkit-transform:  rotate(0deg);transform:  rotate(0deg);}100%{-webkit-transform:  rotate(360deg);transform:  rotate(360deg);}}#B1ZwH6517 *{-webkit-animation-duration:  4s;animation-duration:  4s;-webkit-animation-iteration-count:  infinite;animation-iteration-count:  infinite;-webkit-animation-timing-function:  cubic-bezier(0, 0, 1, 1);animation-timing-function:  cubic-bezier(0, 0, 1, 1);}#rygbwS6c17{-webkit-transform:  translate(3.55908px, 7.69824px);transform:  translate(3.55908px, 7.69824px);stroke: #4F4F4F;stroke-width: 2;}#HkWZvr69ym{-webkit-transform:  translate(4.98877px, 29.6853px);transform:  translate(4.98877px, 29.6853px);stroke: #4F4F4F;stroke-width: 2;}#r1z-DBa5J7{-webkit-transform:  translate(48.2578px, 51.3198px);transform:  translate(48.2578px, 51.3198px);stroke: #4F4F4F;stroke-width: 2;}#Sym-Drackm{-webkit-transform:  translate(25.9082px, 17.7959px);transform:  translate(25.9082px, 17.7959px);stroke: #4F4F4F;stroke-width: 2;}#r1VZPraq1X{-webkit-transform:  translate(89.9932px, 15.9255px) rotate(-29.024deg);transform:  translate(89.9932px, 15.9255px) rotate(-29.024deg);fill: url(#paint0_linear);}#r1SbDrpcJ7{-webkit-transform:  translate(75.292px, 3.92334px) rotate(-29.024deg);transform:  translate(75.292px, 3.92334px) rotate(-29.024deg);fill: url(#paint1_linear);}#rkIZDSTcy7{-webkit-transform:  translate(82.6963px, 11.3677px) rotate(-29.024deg);transform:  translate(82.6963px, 11.3677px) rotate(-29.024deg);fill: url(#paint2_linear);}#SJPbwHpcyQ{-webkit-transform:  translate(5.85938px, -1.31909px) rotate(25.2815deg);transform:  translate(5.85938px, -1.31909px) rotate(25.2815deg);fill: url(#paint3_linear);}#SydZDS69yX{-webkit-transform:  translate(2.146px, 14.5347px) rotate(25.2815deg);transform:  translate(2.146px, 14.5347px) rotate(25.2815deg);fill: url(#paint4_linear);}#HJtZvHpcJm{-webkit-transform:  translate(17.4653px, 6.0105px) rotate(25.2815deg);transform:  translate(17.4653px, 6.0105px) rotate(25.2815deg);fill: url(#paint5_linear);}#HJtZvHpcJm_B1ktHT9y7{-webkit-transform-origin:  50% 50%;transform-origin:  50% 50%;transform-box:  fill-box;-webkit-transform:  rotate(0deg);transform:  rotate(0deg);-webkit-animation-name:  HJtZvHpcJm_B1ktHT9y7_Animation;animation-name:  HJtZvHpcJm_B1ktHT9y7_Animation;}#SydZDS69yX_HkU2D6qk7{-webkit-animation-name:  SydZDS69yX_HkU2D6qk7_Animation;animation-name:  SydZDS69yX_HkU2D6qk7_Animation;-webkit-transform-origin:  50% 50%;transform-origin:  50% 50%;transform-box:  fill-box;-webkit-transform:  rotate(0deg);transform:  rotate(0deg);}#SJPbwHpcyQ_rJcmd69kX{-webkit-transform-origin:  50% 50%;transform-origin:  50% 50%;transform-box:  fill-box;-webkit-transform:  rotate(0deg);transform:  rotate(0deg);-webkit-animation-name:  SJPbwHpcyQ_rJcmd69kX_Animation;animation-name:  SJPbwHpcyQ_rJcmd69kX_Animation;}#r1SbDrpcJ7_ryVOOa5k7{-webkit-transform-origin:  50% 50%;transform-origin:  50% 50%;transform-box:  fill-box;-webkit-transform:  translate(0px, 0px);transform:  translate(0px, 0px);}#r1SbDrpcJ7_ByiF_691m{-webkit-animation-name:  r1SbDrpcJ7_ByiF_691m_Animation;animation-name:  r1SbDrpcJ7_ByiF_691m_Animation;-webkit-transform-origin:  50% 50%;transform-origin:  50% 50%;transform-box:  fill-box;-webkit-transform:  rotate(0deg);transform:  rotate(0deg);}#r1VZPraq1X_HkIsupc1m{-webkit-animation-name:  r1VZPraq1X_HkIsupc1m_Animation;animation-name:  r1VZPraq1X_HkIsupc1m_Animation;-webkit-transform-origin:  50% 50%;transform-origin:  50% 50%;transform-box:  fill-box;-webkit-transform:  rotate(0deg);transform:  rotate(0deg);}#rkIZDSTcy7_ryEWFa9kQ{-webkit-animation-name:  rkIZDSTcy7_ryEWFa9kQ_Animation;animation-name:  rkIZDSTcy7_ryEWFa9kQ_Animation;-webkit-transform-origin:  50% 50%;transform-origin:  50% 50%;transform-box:  fill-box;-webkit-transform:  rotate(0deg);transform:  rotate(0deg);}</style>
<path d="M48.677 0.933928L84.4359 18.8134C85.9253 19.5535 87.1788 20.6944 88.0553 22.1079C88.9318 23.5213 89.3966 25.1513 89.3975 26.8144V69.4122C89.3966 71.0754 88.9318 72.7053 88.0553 74.1188C87.1788 75.5322 85.9253 76.6732 84.4359 77.4133L48.677 95.2927C47.435 95.9142 46.0653 96.2378 44.6765 96.2378C43.2877 96.2378 41.918 95.9142 40.676 95.2927L4.91706 77.4133C3.42918 76.6636 2.1804 75.513 1.31162 74.0914C0.442837 72.6697 -0.0113782 71.0336 0.000216557 69.3675V26.8144C0.0010991 25.1513 0.465923 23.5213 1.34242 22.1079C2.21893 20.6944 3.47235 19.5535 4.96176 18.8134L40.7207 0.933928C41.9568 0.31966 43.3185 -2.08125e-07 44.6988 -2.08125e-07C46.0792 -2.08125e-07 47.4408 0.31966 48.677 0.933928V0.933928Z" stroke-linecap="round" stroke-linejoin="round" id="rygbwS6c17"/>
<path d="M-2.98396e-07 -6.82047e-07L43.2683 21.6341L86.5365 -6.82047e-07" stroke-linecap="round" stroke-linejoin="round" id="HkWZvr69ym"/>
<path d="M0 52.5656V0" stroke-linecap="round" stroke-linejoin="round" id="r1z-DBa5J7"/>
<path d="M0 0L44.6986 22.3493" stroke-linecap="round" stroke-linejoin="round" id="Sym-Drackm"/>
<g id="r1VZPraq1X_HkIsupc1m" data-animator-group="true" data-animator-type="1"><path d="M5.32125 3.61798L6.88336 2.05612C7.35401 1.58635 7.35401 0.822688 6.88336 0.352924C6.41272 -0.117642 5.65053 -0.117642 5.17989 0.352924L3.61777 1.91479L2.05646 0.353727C1.58581 -0.116839 0.823624 -0.116839 0.352981 0.353727C-0.117663 0.82349 -0.117663 1.58716 0.352981 2.05692L1.9143 3.61798L0.352981 5.17904C-0.117663 5.6488 -0.117663 6.41247 0.352981 6.88223C0.588303 7.11751 0.896714 7.23475 1.20512 7.23475C1.51353 7.23475 1.82194 7.11751 2.05726 6.88223L3.61857 5.32117L5.18069 6.88303C5.41601 7.11832 5.72442 7.23556 6.03283 7.23556C6.34124 7.23556 6.64965 7.11832 6.88497 6.88303C7.35561 6.41327 7.35561 5.64961 6.88497 5.17984L5.32125 3.61798Z" id="r1VZPraq1X"/></g>
<g id="r1SbDrpcJ7_ByiF_691m" data-animator-group="true" data-animator-type="1"><path d="M4.61809 1.7064H4.11773V1.20452C4.11773 0.539625 3.57882 4.28856e-08 2.91301 4.28856e-08C2.248 4.28856e-08 1.70829 0.538822 1.70829 1.20452V1.7064H1.20472C0.538909 1.7064 -1.56864e-06 2.24523 -1.56864e-06 2.91093C-1.56864e-06 3.57662 0.538909 4.11545 1.20472 4.11545H1.70668V4.61733C1.70668 5.28223 2.24559 5.82185 2.9114 5.82185C3.57641 5.82185 4.11612 5.28303 4.11612 4.61733V4.11545H4.61809C5.2839 4.11545 5.82281 3.57662 5.82281 2.91093C5.82281 2.24523 5.28309 1.7064 4.61809 1.7064Z" id="r1SbDrpcJ7"/></g>
<g id="rkIZDSTcy7_ryEWFa9kQ" data-animator-group="true" data-animator-type="1"><path d="M3.1686 0.341471C2.78389 -0.0431729 2.21125 -0.0961717 1.75506 0.148748C1.29888 -0.0961717 0.726237 -0.0431729 0.34153 0.341471C-0.0431773 0.726114 -0.0961894 1.29866 0.14877 1.75478C-0.0961894 2.21089 -0.0431773 2.78344 0.34153 3.16808C0.576851 3.40336 0.885257 3.5206 1.19367 3.5206C1.38963 3.5206 1.57837 3.45556 1.75506 3.3608C1.93256 3.45556 2.1205 3.5206 2.31647 3.5206C2.62487 3.5206 2.93328 3.40336 3.1686 3.16808C3.55331 2.78344 3.60631 2.21089 3.36135 1.75478C3.60551 1.29866 3.55331 0.726114 3.1686 0.341471Z" id="rkIZDSTcy7"/></g>
<g id="SJPbwHpcyQ_rJcmd69kX" data-animator-group="true" data-animator-type="1"><path d="M8.03066 3.4112H5.82281V1.20452C5.82281 0.538822 5.2839 4.28856e-08 4.61809 4.28856e-08C3.95228 4.28856e-08 3.41337 0.538822 3.41337 1.20452V3.4112H1.20472C0.538911 3.4112 5.51477e-08 3.95003 5.51477e-08 4.61572C5.51477e-08 5.28142 0.538911 5.82024 1.20472 5.82024H3.41337V8.02853C3.41337 8.69423 3.95228 9.23305 4.61809 9.23305C5.2839 9.23305 5.82281 8.69423 5.82281 8.02853V5.82024H8.03066C8.69646 5.82024 9.23538 5.28142 9.23538 4.61572C9.23538 3.95003 8.69566 3.4112 8.03066 3.4112Z" id="SJPbwHpcyQ"/></g>
<g id="SydZDS69yX_HkU2D6qk7" data-animator-group="true" data-animator-type="1"><path d="M4.46991 2.76759L4.11412 2.41185L4.46991 2.05612C4.94055 1.58635 4.94055 0.822688 4.46991 0.352924C3.99927 -0.117642 3.23708 -0.117642 2.76644 0.352924L2.41145 0.707856L2.05726 0.353727C1.58661 -0.116839 0.823626 -0.116036 0.352983 0.353727C-0.117661 0.824293 -0.117661 1.58716 0.352983 2.05772L0.707973 2.41266L0.353786 2.76678C-0.116858 3.23655 -0.116858 4.00021 0.353786 4.46998C0.589107 4.70526 0.897516 4.8225 1.20592 4.8225C1.51433 4.8225 1.82274 4.70526 2.05806 4.46998L2.41225 4.11585L2.76804 4.47158C3.00336 4.70687 3.31177 4.82411 3.62018 4.82411C3.92859 4.82411 4.237 4.70687 4.47232 4.47158C4.93975 4.00102 4.93975 3.23815 4.46991 2.76759Z" id="SydZDS69yX"/></g>
<g id="HJtZvHpcJm_B1ktHT9y7" data-animator-group="true" data-animator-type="1"><path d="M3.99726 1.9979C3.99726 1.45586 3.63745 1.00296 3.14512 0.851998C2.99333 0.35975 2.54115 3.06325e-07 1.99903 3.06325e-07C1.45691 3.06325e-07 1.00474 0.35975 0.852941 0.851998C0.360613 1.00296 -1.4706e-07 1.45586 -1.4706e-07 1.9979C-1.4706e-07 2.53993 0.360613 2.99283 0.852941 3.1438C1.00393 3.63605 1.45691 3.9966 1.99903 3.9966C2.54115 3.9966 2.99413 3.63605 3.14512 3.1438C3.63745 2.99203 3.99726 2.53993 3.99726 1.9979Z" id="HJtZvHpcJm"/></g>
<defs>
<linearGradient id="paint0_linear" x2="1" gradientUnits="userSpaceOnUse" gradientTransform="translate(7.23795) scale(7.23795 7.23556) rotate(90)">
<stop stop-color="#9A78BB"/>
<stop offset="1" stop-color="#DE9785"/>
</linearGradient>
<linearGradient id="paint1_linear" x2="1" gradientUnits="userSpaceOnUse" gradientTransform="translate(5.82281) scale(5.82281 5.82185) rotate(90)">
<stop stop-color="#9A78BB"/>
<stop offset="1" stop-color="#DE9785"/>
</linearGradient>
<linearGradient id="paint2_linear" x2="1" gradientUnits="userSpaceOnUse" gradientTransform="translate(3.51013) scale(3.51013 3.5206) rotate(90)">
<stop stop-color="#9A78BB"/>
<stop offset="1" stop-color="#DE9785"/>
</linearGradient>
<linearGradient id="paint3_linear" x2="1" gradientUnits="userSpaceOnUse" gradientTransform="translate(9.23538) scale(9.23538 9.23305) rotate(90)">
<stop stop-color="#9A78BB"/>
<stop offset="1" stop-color="#DE9785"/>
</linearGradient>
<linearGradient id="paint4_linear" x2="1" gradientUnits="userSpaceOnUse" gradientTransform="translate(4.82289) scale(4.82289 4.82411) rotate(90)">
<stop stop-color="#9A78BB"/>
<stop offset="1" stop-color="#DE9785"/>
</linearGradient>
<linearGradient id="paint5_linear" x2="1" gradientUnits="userSpaceOnUse" gradientTransform="translate(3.99726) scale(3.99726 3.9966) rotate(90)">
<stop stop-color="#9A78BB"/>
<stop offset="1" stop-color="#DE9785"/>
</linearGradient>
</defs>
<script>(function(){var a=document.querySelector('#B1ZwH6517'),b=a.querySelectorAll('style'),c=function(d){b.forEach(function(f){var g=f.textContent;g&amp;&amp;(f.textContent=g.replace(/transform-box:[^;\r\n]*/gi,'transform-box: '+d))})};c('initial'),window.requestAnimationFrame(function(){return c('fill-box')})})();</script></svg>