<svg width="100" height="105" viewBox="0 0 100 105" fill="none" xmlns="http://www.w3.org/2000/svg">
<path d="M48.677 0.933928L84.4359 18.8134C85.9253 19.5535 87.1788 20.6944 88.0553 22.1079C88.9318 23.5213 89.3966 25.1513 89.3975 26.8144V69.4122C89.3966 71.0754 88.9318 72.7053 88.0553 74.1188C87.1788 75.5322 85.9253 76.6732 84.4359 77.4133L48.677 95.2927C47.435 95.9142 46.0653 96.2378 44.6765 96.2378C43.2877 96.2378 41.918 95.9142 40.676 95.2927L4.91706 77.4133C3.42918 76.6636 2.1804 75.513 1.31162 74.0914C0.442837 72.6697 -0.0113782 71.0336 0.000216557 69.3675V26.8144C0.0010991 25.1513 0.465923 23.5213 1.34242 22.1079C2.21893 20.6944 3.47235 19.5535 4.96176 18.8134L40.7207 0.933928C41.9568 0.31966 43.3185 -2.08125e-07 44.6988 -2.08125e-07C46.0792 -2.08125e-07 47.4408 0.31966 48.677 0.933928V0.933928Z" transform="translate(3.55908 7.69824)" stroke="#4F4F4F" stroke-width="2" stroke-linecap="round" stroke-linejoin="round"/>
<path d="M-2.98396e-07 -6.82047e-07L43.2683 21.6341L86.5365 -6.82047e-07" transform="translate(4.98877 29.6853)" stroke="#4F4F4F" stroke-width="2" stroke-linecap="round" stroke-linejoin="round"/>
<path d="M0 52.5656V0" transform="translate(48.2578 51.3198)" stroke="#4F4F4F" stroke-width="2" stroke-linecap="round" stroke-linejoin="round"/>
<path d="M0 0L44.6986 22.3493" transform="translate(25.9082 17.7959)" stroke="#4F4F4F" stroke-width="2" stroke-linecap="round" stroke-linejoin="round"/>
<path d="M5.32125 3.61798L6.88336 2.05612C7.35401 1.58635 7.35401 0.822688 6.88336 0.352924C6.41272 -0.117642 5.65053 -0.117642 5.17989 0.352924L3.61777 1.91479L2.05646 0.353727C1.58581 -0.116839 0.823624 -0.116839 0.352981 0.353727C-0.117663 0.82349 -0.117663 1.58716 0.352981 2.05692L1.9143 3.61798L0.352981 5.17904C-0.117663 5.6488 -0.117663 6.41247 0.352981 6.88223C0.588303 7.11751 0.896714 7.23475 1.20512 7.23475C1.51353 7.23475 1.82194 7.11751 2.05726 6.88223L3.61857 5.32117L5.18069 6.88303C5.41601 7.11832 5.72442 7.23556 6.03283 7.23556C6.34124 7.23556 6.64965 7.11832 6.88497 6.88303C7.35561 6.41327 7.35561 5.64961 6.88497 5.17984L5.32125 3.61798Z" transform="translate(89.9932 15.9255) rotate(-29.024)" fill="url(#paint0_linear)"/>
<path d="M4.61809 1.7064H4.11773V1.20452C4.11773 0.539625 3.57882 4.28856e-08 2.91301 4.28856e-08C2.248 4.28856e-08 1.70829 0.538822 1.70829 1.20452V1.7064H1.20472C0.538909 1.7064 -1.56864e-06 2.24523 -1.56864e-06 2.91093C-1.56864e-06 3.57662 0.538909 4.11545 1.20472 4.11545H1.70668V4.61733C1.70668 5.28223 2.24559 5.82185 2.9114 5.82185C3.57641 5.82185 4.11612 5.28303 4.11612 4.61733V4.11545H4.61809C5.2839 4.11545 5.82281 3.57662 5.82281 2.91093C5.82281 2.24523 5.28309 1.7064 4.61809 1.7064Z" transform="translate(75.292 3.92334) rotate(-29.024)" fill="url(#paint1_linear)"/>
<path d="M3.1686 0.341471C2.78389 -0.0431729 2.21125 -0.0961717 1.75506 0.148748C1.29888 -0.0961717 0.726237 -0.0431729 0.34153 0.341471C-0.0431773 0.726114 -0.0961894 1.29866 0.14877 1.75478C-0.0961894 2.21089 -0.0431773 2.78344 0.34153 3.16808C0.576851 3.40336 0.885257 3.5206 1.19367 3.5206C1.38963 3.5206 1.57837 3.45556 1.75506 3.3608C1.93256 3.45556 2.1205 3.5206 2.31647 3.5206C2.62487 3.5206 2.93328 3.40336 3.1686 3.16808C3.55331 2.78344 3.60631 2.21089 3.36135 1.75478C3.60551 1.29866 3.55331 0.726114 3.1686 0.341471Z" transform="translate(82.6963 11.3677) rotate(-29.024)" fill="url(#paint2_linear)"/>
<path d="M8.03066 3.4112H5.82281V1.20452C5.82281 0.538822 5.2839 4.28856e-08 4.61809 4.28856e-08C3.95228 4.28856e-08 3.41337 0.538822 3.41337 1.20452V3.4112H1.20472C0.538911 3.4112 5.51477e-08 3.95003 5.51477e-08 4.61572C5.51477e-08 5.28142 0.538911 5.82024 1.20472 5.82024H3.41337V8.02853C3.41337 8.69423 3.95228 9.23305 4.61809 9.23305C5.2839 9.23305 5.82281 8.69423 5.82281 8.02853V5.82024H8.03066C8.69646 5.82024 9.23538 5.28142 9.23538 4.61572C9.23538 3.95003 8.69566 3.4112 8.03066 3.4112Z" transform="translate(5.85938 -1.31909) rotate(25.2815)" fill="url(#paint3_linear)"/>
<path d="M4.46991 2.76759L4.11412 2.41185L4.46991 2.05612C4.94055 1.58635 4.94055 0.822688 4.46991 0.352924C3.99927 -0.117642 3.23708 -0.117642 2.76644 0.352924L2.41145 0.707856L2.05726 0.353727C1.58661 -0.116839 0.823626 -0.116036 0.352983 0.353727C-0.117661 0.824293 -0.117661 1.58716 0.352983 2.05772L0.707973 2.41266L0.353786 2.76678C-0.116858 3.23655 -0.116858 4.00021 0.353786 4.46998C0.589107 4.70526 0.897516 4.8225 1.20592 4.8225C1.51433 4.8225 1.82274 4.70526 2.05806 4.46998L2.41225 4.11585L2.76804 4.47158C3.00336 4.70687 3.31177 4.82411 3.62018 4.82411C3.92859 4.82411 4.237 4.70687 4.47232 4.47158C4.93975 4.00102 4.93975 3.23815 4.46991 2.76759Z" transform="translate(2.146 14.5347) rotate(25.2815)" fill="url(#paint4_linear)"/>
<path d="M3.99726 1.9979C3.99726 1.45586 3.63745 1.00296 3.14512 0.851998C2.99333 0.35975 2.54115 3.06325e-07 1.99903 3.06325e-07C1.45691 3.06325e-07 1.00474 0.35975 0.852941 0.851998C0.360613 1.00296 -1.4706e-07 1.45586 -1.4706e-07 1.9979C-1.4706e-07 2.53993 0.360613 2.99283 0.852941 3.1438C1.00393 3.63605 1.45691 3.9966 1.99903 3.9966C2.54115 3.9966 2.99413 3.63605 3.14512 3.1438C3.63745 2.99203 3.99726 2.53993 3.99726 1.9979Z" transform="translate(17.4653 6.0105) rotate(25.2815)" fill="url(#paint5_linear)"/>
<defs>
<linearGradient id="paint0_linear" x2="1" gradientUnits="userSpaceOnUse" gradientTransform="translate(7.23795) scale(7.23795 7.23556) rotate(90)">
<stop stop-color="#9A78BB"/>
<stop offset="1" stop-color="#DE9785"/>
</linearGradient>
<linearGradient id="paint1_linear" x2="1" gradientUnits="userSpaceOnUse" gradientTransform="translate(5.82281) scale(5.82281 5.82185) rotate(90)">
<stop stop-color="#9A78BB"/>
<stop offset="1" stop-color="#DE9785"/>
</linearGradient>
<linearGradient id="paint2_linear" x2="1" gradientUnits="userSpaceOnUse" gradientTransform="translate(3.51013) scale(3.51013 3.5206) rotate(90)">
<stop stop-color="#9A78BB"/>
<stop offset="1" stop-color="#DE9785"/>
</linearGradient>
<linearGradient id="paint3_linear" x2="1" gradientUnits="userSpaceOnUse" gradientTransform="translate(9.23538) scale(9.23538 9.23305) rotate(90)">
<stop stop-color="#9A78BB"/>
<stop offset="1" stop-color="#DE9785"/>
</linearGradient>
<linearGradient id="paint4_linear" x2="1" gradientUnits="userSpaceOnUse" gradientTransform="translate(4.82289) scale(4.82289 4.82411) rotate(90)">
<stop stop-color="#9A78BB"/>
<stop offset="1" stop-color="#DE9785"/>
</linearGradient>
<linearGradient id="paint5_linear" x2="1" gradientUnits="userSpaceOnUse" gradientTransform="translate(3.99726) scale(3.99726 3.9966) rotate(90)">
<stop stop-color="#9A78BB"/>
<stop offset="1" stop-color="#DE9785"/>
</linearGradient>
</defs>
</svg>
