<svg width="173" height="45" viewBox="0 0 173 45" fill="none" xmlns="http://www.w3.org/2000/svg">
<rect x="2" y="2" width="169" height="41" rx="8" stroke="url(#paint0_linear)" stroke-width="4"/>
<path d="M4.68941 12.736C5.44141 11.072 6.72941 10.24 8.55341 10.24C9.91341 10.24 10.9694 10.688 11.7214 11.584C12.4894 12.48 12.8734 13.704 12.8734 15.256V22H11.0014V15.256C11.0014 14.152 10.7374 13.32 10.2094 12.76C9.69741 12.2 8.96141 11.92 8.00141 11.92C7.04141 11.92 6.26541 12.312 5.67341 13.096C5.08141 13.88 4.76941 14.968 4.73741 16.36V22H2.84141V10.528H4.47341L4.68941 12.736ZM21.2863 20.728C22.8703 20.728 23.7743 20.032 23.9983 18.64H25.9423C25.7663 19.792 25.2543 20.688 24.4063 21.328C23.5743 21.952 22.5343 22.264 21.2863 22.264C19.7503 22.264 18.5023 21.72 17.5423 20.632C16.5823 19.528 16.1023 18.064 16.1023 16.24C16.1023 14.416 16.5823 12.96 17.5423 11.872C18.5183 10.784 19.8063 10.24 21.4063 10.24C23.0223 10.24 24.2223 10.864 25.0063 12.112C25.8063 13.36 26.0863 14.88 25.8463 16.672H17.9983C17.9983 17.856 18.2863 18.832 18.8623 19.6C19.4383 20.352 20.2463 20.728 21.2863 20.728ZM22.6783 12.04C22.3103 11.848 21.8623 11.752 21.3343 11.752C20.3583 11.752 19.5823 12.088 19.0063 12.76C18.4463 13.416 18.1183 14.24 18.0223 15.232H24.1423C24.1423 13.632 23.6543 12.568 22.6783 12.04ZM38.8939 22H36.5899L33.3019 17.656L30.1819 22H27.8779L32.2219 16.264L27.8779 10.504H30.1819L33.4699 14.824L36.6139 10.504H38.9179L34.5259 16.264L38.8939 22ZM47.9592 21.664C46.5832 22.304 45.3272 22.44 44.1912 22.072C43.3752 21.816 42.7992 21.28 42.4632 20.464C42.2872 20.064 42.1992 19.584 42.1992 19.024V11.968H40.3512V10.528H42.1992V7.336H44.0712V10.528H47.6712V11.968H44.0712V19C44.0712 20.168 44.6152 20.752 45.7032 20.752C46.2952 20.752 46.9592 20.608 47.6952 20.32L47.9592 21.664Z" transform="translate(63 7)" fill="url(#paint1_linear)"/>
<defs>
<linearGradient id="paint0_linear" x2="1" gradientUnits="userSpaceOnUse" gradientTransform="matrix(173 45 -173 665.089 86.5 -332.544)">
<stop stop-color="#9871B2"/>
<stop offset="1" stop-color="#F8680F"/>
</linearGradient>
<linearGradient id="paint1_linear" x2="1" gradientUnits="userSpaceOnUse" gradientTransform="matrix(155.952 36 -60.8276 296.759 -23.2977 -149.879)">
<stop stop-color="#9B71AF"/>
<stop offset="1" stop-color="#F56916"/>
</linearGradient>
</defs>
</svg>
